<?xml version="1.0" standalone="no"?>
<!DOCTYPE svg PUBLIC "-//W3C//DTD SVG 20010904//EN"
 "http://www.w3.org/TR/2001/REC-SVG-20010904/DTD/svg10.dtd">
<svg version="1.0" xmlns="http://www.w3.org/2000/svg"
 width="200.000000pt" height="200.000000pt" viewBox="0 0 200.000000 200.000000"
 preserveAspectRatio="xMidYMid meet">
<metadata>
Created by potrace 1.11, written by Peter Selinger 2001-2013
</metadata>
<g transform="translate(0.000000,200.000000) scale(0.100000,-0.100000)"
fill="#000000" stroke="none">
<path d="M910 1823 c-133 -23 -268 -118 -329 -231 -17 -32 -38 -107 -46 -162
-3 -25 -8 -54 -10 -65 -2 -11 -4 -50 -4 -86 -1 -61 -2 -66 -23 -65 -20 1 -23
-5 -26 -46 -2 -31 4 -62 18 -92 11 -25 20 -49 19 -53 -4 -25 3 -36 11 -16 6
15 15 20 29 16 19 -5 20 -2 14 48 -3 30 -9 56 -12 59 -3 3 -7 19 -8 35 -1 17
0 24 3 18 3 -7 14 -13 25 -13 10 0 19 -6 20 -12 0 -7 5 1 10 17 11 35 1 185
-12 185 -5 0 -9 5 -9 11 0 5 4 8 9 5 5 -3 8 6 9 19 0 14 -4 25 -9 25 -27 0 41
168 85 212 31 30 94 45 124 29 22 -12 38 -65 17 -57 -8 3 -11 -2 -8 -14 3 -10
-1 -21 -8 -26 -9 -5 -11 -2 -6 12 7 18 7 18 -8 0 -22 -29 -18 -51 11 -71 19
-12 23 -20 15 -29 -6 -7 -8 -16 -4 -19 9 -9 33 12 33 29 0 8 9 14 20 14 17 0
20 7 21 53 1 28 1 58 0 64 -7 50 76 92 171 88 146 -6 217 -46 273 -153 13 -26
24 -44 25 -41 0 10 -28 89 -45 126 -15 31 -90 100 -148 137 -55 34 -185 60
-247 49z m-387 -655 c-7 -35 -32 -99 -33 -84 0 7 10 47 26 104 7 26 13 10 7
-20z"/>
<path d="M760 1500 c0 -5 5 -10 10 -10 6 0 10 5 10 10 0 6 -4 10 -10 10 -5 0
-10 -4 -10 -10z"/>
<path d="M786 1485 c-9 -26 -7 -32 5 -12 6 10 9 21 6 23 -2 3 -7 -2 -11 -11z"/>
<path d="M1355 1483 c5 -10 10 -97 13 -193 2 -96 8 -179 13 -184 12 -13 1 307
-12 357 -5 20 -12 37 -15 37 -4 0 -3 -8 1 -17z"/>
<path d="M790 1393 c-33 -13 -61 -52 -76 -106 -14 -47 -15 -62 -4 -87 12 -30
13 -30 90 -30 53 0 83 4 92 14 18 17 58 30 58 18 0 -41 -69 -130 -113 -145
-11 -4 -15 -12 -11 -19 3 -7 -7 2 -23 20 -48 54 -74 38 -104 -66 -7 -23 -19
-47 -26 -54 -11 -9 -12 -13 -1 -19 11 -7 11 -9 0 -9 -7 0 -10 -4 -7 -10 3 -5
1 -19 -6 -31 -6 -13 -7 -19 -1 -15 7 4 9 -10 7 -40 -1 -25 3 -56 9 -69 7 -13
11 -36 10 -52 -2 -15 -6 -64 -9 -108 -9 -111 -15 -112 -32 -5 l-9 55 -17 -31
c-9 -18 -19 -51 -23 -74 -7 -45 -41 -85 -80 -94 -12 -3 -50 -22 -85 -42 -35
-20 -120 -66 -189 -101 -69 -36 -151 -82 -182 -102 l-57 -36 -1 -77 0 -78
1000 0 1000 0 0 68 0 67 -53 27 c-158 80 -473 230 -550 261 -20 9 -40 24 -43
34 -4 10 -18 43 -32 73 l-25 55 -12 -85 c-14 -97 -37 -149 -106 -234 -27 -33
-51 -72 -54 -87 -9 -42 -34 -57 -90 -57 -33 1 -49 -3 -47 -11 2 -9 -3 -9 -17
-2 -10 6 -21 7 -25 4 -3 -3 -6 1 -6 11 0 10 5 14 11 10 17 -10 58 16 52 33 -3
8 0 19 8 24 12 8 12 11 -1 22 -17 13 -19 25 -7 44 5 8 1 26 -10 43 -15 26 -16
34 -5 51 9 14 11 35 7 60 -5 31 -4 39 8 39 8 0 17 6 20 14 3 8 44 33 90 55 68
33 93 52 131 97 37 46 46 63 42 86 -2 15 0 28 5 28 5 0 9 -6 9 -12 0 -8 7 -5
15 6 16 21 17 79 2 69 -5 -3 -12 -15 -17 -27 -7 -17 -9 -17 -9 -3 -1 23 -13
22 -29 -3 -8 -13 -8 -20 -1 -20 5 0 7 -5 4 -10 -4 -6 -14 -1 -25 12 -12 15
-19 18 -20 9 0 -11 -3 -11 -17 0 -16 12 -17 12 -6 -2 10 -12 10 -18 0 -30 -10
-12 -10 -12 3 -1 7 6 19 12 25 12 5 0 -6 -14 -25 -30 -31 -27 -33 -31 -17 -41
23 -13 22 -24 -3 -26 -11 -1 -20 3 -20 10 0 8 -3 8 -12 -1 -9 -9 -15 -9 -26 0
-10 9 -16 8 -23 -3 -5 -9 -9 -9 -9 -2 0 14 -37 28 -62 24 -10 -1 -18 4 -18 12
0 8 -3 29 -6 46 -6 30 -5 31 27 31 23 0 42 8 57 25 l24 25 -27 10 c-14 5 -29
10 -33 10 -3 0 -18 12 -33 26 -24 23 -26 29 -14 40 7 8 23 14 34 14 12 0 21 2
21 5 0 7 -35 41 -56 55 -17 10 -15 11 12 6 31 -5 80 13 78 30 -2 13 28 39 45
39 8 0 16 5 18 11 2 7 -15 13 -42 17 -26 2 -51 9 -56 14 -9 9 -19 91 -23 188
-3 69 -5 75 -17 75 -6 0 -23 9 -38 20 -15 10 -57 24 -92 29 -70 12 -77 12 -99
4z m130 -103 c11 -8 7 -9 -15 -4 -37 8 -45 14 -19 14 10 0 26 -5 34 -10z m-1
-34 c9 -11 8 -15 -5 -20 -23 -9 -24 -8 -24 14 0 23 13 26 29 6z m191 -226 c0
-5 -2 -10 -4 -10 -3 0 -8 5 -11 10 -3 6 -1 10 4 10 6 0 11 -4 11 -10z m110
-344 c0 -3 -4 -8 -10 -11 -5 -3 -10 -1 -10 4 0 6 5 11 10 11 6 0 10 -2 10 -4z"/>
<path d="M1146 1344 c-20 -20 -20 -34 0 -34 10 0 6 -7 -13 -24 -24 -21 -26
-26 -16 -49 13 -28 67 -62 83 -52 6 4 8 10 5 15 -3 4 2 13 10 20 8 7 15 19 15
27 0 11 6 10 26 -6 34 -27 48 -27 32 -1 -7 11 -30 25 -51 31 -37 10 -43 29 -9
29 15 0 15 2 2 10 -12 8 -10 10 9 10 19 0 21 3 12 14 -10 11 -8 15 6 19 10 3
-8 5 -39 6 -39 1 -61 -4 -72 -15z"/>
<path d="M1190 1065 c0 -3 9 -22 20 -42 25 -47 25 -58 0 -60 -11 -1 -18 2 -15
7 3 5 1 11 -5 15 -5 3 -10 1 -10 -5 0 -6 -4 -8 -10 -5 -5 3 -10 2 -10 -4 0 -5
9 -12 19 -16 22 -7 36 -35 18 -36 -7 -1 -19 -2 -27 -3 -8 -2 -26 -3 -39 -4
-24 -2 -24 -2 -5 -17 23 -17 58 -19 85 -5 13 7 19 7 19 0 0 -5 5 -10 10 -10 7
0 7 6 2 18 -5 9 -6 26 -2 37 6 17 9 14 19 -18 13 -38 13 -38 28 -17 14 19 13
26 -2 65 -17 46 -65 105 -84 105 -6 0 -11 -2 -11 -5z"/>
<path d="M1135 1009 c-4 -6 -5 -12 -2 -15 2 -3 7 2 10 11 7 17 1 20 -8 4z"/>
<path d="M559 991 c10 -7 11 -13 1 -31 -10 -20 -9 -21 12 -18 35 5 20 58 -17
58 -5 0 -4 -4 4 -9z"/>
</g>
</svg>
